<?xml version="1.0" encoding="UTF-8" standalone="no"?>
<!DOCTYPE svg PUBLIC "-//W3C//DTD SVG 1.1//EN" "http://www.w3.org/Graphics/SVG/1.1/DTD/svg11.dtd">
<svg width="100%" height="100%" viewBox="0 0 644 219" version="1.1" xmlns="http://www.w3.org/2000/svg" xmlns:xlink="http://www.w3.org/1999/xlink" xml:space="preserve" xmlns:serif="http://www.serif.com/" style="fill-rule:evenodd;clip-rule:evenodd;stroke-linejoin:round;stroke-miterlimit:2;">
    <g transform="matrix(1,0,0,1,-1443.13,-824.02)">
        <g>
            <g transform="matrix(0.296689,0,0,0.296689,766.895,-321.522)">
                <path d="M2766.19,3965.28C2787.9,3979.76 2803.55,4003.11 2807.42,4030.99L2850.34,4340.19C2857.54,4391.94 2821.41,4439.72 2769.65,4446.91L2580.74,4465.07C2578.74,4463.78 2576.27,4462.49 2573.2,4461.25C2570.79,4460.28 2568.8,4459.28 2567.22,4458.18C2566.21,4457.48 2565.17,4457.21 2565.13,4456.39C2565.07,4455.12 2565.9,4453.93 2566.69,4452.62C2567.82,4450.74 2569.28,4448.89 2570.91,4447.07C2577.71,4439.43 2587.12,4432.52 2593.02,4427.88C2617.46,4408.69 2622.23,4396.02 2624.68,4385.22C2625.78,4380.34 2624.11,4375.25 2620.33,4371.98C2617.73,4369.73 2614.43,4368.59 2611.1,4368.69C2613.62,4367.24 2615.9,4365.92 2617.83,4364.78C2624.71,4360.71 2628.51,4357.02 2629.08,4356.18C2651.95,4322.8 2677.03,4264.07 2700.51,4186.17C2701.56,4182.69 2701.16,4178.98 2699.46,4175.83C2703.93,4173.73 2706.93,4169.32 2707.21,4164.32C2710.05,4112.25 2744.57,4069.47 2761.4,4051.33C2765.97,4046.41 2766.24,4038.88 2762.03,4033.64C2757.82,4028.4 2750.41,4027.04 2744.62,4030.45C2743.51,4031.1 2742.41,4031.73 2741.32,4032.33C2747.25,4024.84 2751.96,4016.15 2755.64,4006.88C2761.04,3993.27 2764.19,3978.45 2766.19,3965.28ZM2539.03,3981.93C2534.83,3994.39 2527.96,4008.84 2517.49,4025.49C2511.05,4035.72 2506.17,4046.11 2502.52,4056.34C2500.93,4054.85 2498.96,4053.73 2496.73,4053.14C2490.31,4051.44 2483.61,4054.64 2480.9,4060.7C2444.39,4142.34 2445.73,4243.32 2450.48,4300.73C2444.99,4301.29 2440.28,4305.19 2438.81,4310.68C2435.72,4322.16 2430.86,4344.66 2432.27,4366.6C2433.33,4383.01 2437.93,4399 2448.01,4411.03C2449.66,4413.03 2450.64,4415.03 2450.17,4417.25C2449.1,4422.18 2444.62,4426.24 2440.22,4429.86C2431.46,4437.07 2421.35,4441.75 2420.66,4442.04L2421.76,4441.64C2420.63,4442.07 2416.29,4443.86 2412.03,4447.36C2410.29,4448.78 2408.61,4450.47 2407.11,4452.39C2390.36,4437.9 2378.59,4417.51 2375.31,4393.85L2332.27,4113.31C2325.09,4061.56 2361.21,4013.79 2412.96,4006.6L2539.03,3981.93Z" style="fill:rgb(166,165,246);fill-rule:nonzero;"/>
            </g>
            <g transform="matrix(0.296689,0,0,0.296689,766.895,-321.522)">
                <path d="M2539.58,3928.75L2404.22,3955.24C2324.83,3967.11 2269.62,4040.75 2280.68,4120.47L2280.73,4120.84C2280.79,4121.21 2322.14,4390.74 2323.78,4401.42C2333.38,4469.29 2388.03,4519.75 2453.29,4526.73C2447.71,4518.9 2440.82,4511.93 2431.86,4506.38C2420.17,4499.15 2412.09,4491.92 2407.49,4485.4C2403.56,4479.82 2401.74,4474.35 2401.5,4469.3C2379.02,4452.14 2363.04,4426.47 2358.82,4396.26C2357.85,4389.94 2315.79,4115.84 2315.78,4115.72L2315.76,4115.6C2307.34,4054.89 2349.59,3998.83 2410.19,3990.16L2543.55,3964.06C2545.4,3952.58 2544.61,3943.39 2542.42,3936.24C2541.61,3933.59 2540.65,3931.1 2539.58,3928.75ZM2769.86,3908.45C2770.84,3920.11 2769.97,3931.85 2769.05,3941.26C2768.87,3943.09 2768.68,3945.05 2768.46,3947.11C2797.59,3963.61 2818.98,3992.99 2823.93,4028.7L2866.85,4337.89L2866.85,4337.89C2875.31,4398.76 2832.82,4454.96 2771.59,4463.47L2590.42,4480.88C2590.45,4481.3 2590.47,4481.69 2590.49,4482.02C2591.25,4486.05 2590.14,4490.26 2587.38,4493.42C2584.08,4497.19 2578.97,4498.84 2574.09,4497.69L2572.92,4497.43C2575.24,4501.92 2577.54,4508.03 2577.63,4510.31C2577.75,4513.27 2577.01,4515.59 2576.14,4517.34C2576.05,4517.52 2575.95,4517.69 2575.86,4517.86L2775.73,4498.65C2857.07,4487.34 2913.08,4413.26 2901.93,4333.02L2901.93,4333.02L2859.01,4023.83C2851.61,3970.42 2816.3,3927.74 2769.86,3908.45Z" style="fill:url(#_Linear1);"/>
            </g>
            <g transform="matrix(1.79153,0,0,1.79153,1542.62,1042.85)">
                <path d="M0,-122.147C-0.35,-121.582 -0.719,-120.742 -0.432,-120.084C-0.18,-119.486 0.525,-119.116 1.686,-119.186C5.912,-119.44 11.801,-121.187 14.988,-121.354C24.509,-121.854 23.971,-113.569 23.521,-108.978C23.115,-104.785 22.268,-96.074 16.971,-92.888C13.834,-91.001 7.598,-88.58 7.598,-88.58C7.598,-88.58 9.172,-88.296 10.281,-88.296C12.686,-88.296 17.328,-88.815 22.844,-92.058C19.852,-88.835 13.779,-81.199 13.273,-71.943C12.48,-71.64 7.572,-70.662 3.588,-69.869C-5.85,-67.993 -5.875,-67.927 -5.957,-67.652C-5.826,-67.277 -0.404,-67.634 3.463,-68.041C7.174,-68.445 11.012,-68.85 12.256,-68.85C8.455,-56.239 4.426,-46.718 0.711,-41.297C0.408,-40.845 -11.354,-34.568 -11.326,-34.021C-11.326,-34.021 -8.326,-32.655 -0.342,-35.735C-0.679,-34.25 -1.423,-32.575 -4.783,-29.937C-7.425,-27.863 -13.932,-23.154 -7.52,-20.568C-5.556,-19.775 -6.182,-19.22 -6.02,-18.796C-6.424,-18.891 -7.092,-19.023 -7.775,-19.023C-8.352,-19.023 -8.838,-18.929 -9.236,-18.759C-10.658,-17.859 -9.309,-16.712 -8.795,-15.771C-8.523,-15.281 -8.117,-14.526 -8.197,-14.367C-9.785,-14.367 -14.275,-11.476 -14.744,-11.476C-15.846,-11.476 -17.689,-12.394 -17.715,-18.552C-17.793,-41.543 -13.381,-64.996 -4.576,-88.259L-5.035,-88.466C-11.525,-74.205 -16.148,-60.16 -18.77,-46.699L-20.453,-36.066C-22.598,-18.014 -20.572,-5.628 -19.076,0C-19.697,-1.433 -20.23,-2.931 -20.742,-4.412C-22.445,-9.209 -24.203,-14.168 -28.908,-17.081C-31.592,-18.74 -32.963,-20.316 -32.873,-21.634C-32.783,-23.019 -31.098,-23.755 -31.068,-23.764C-30.846,-23.858 -25.543,-26.291 -24.861,-29.467C-24.643,-30.494 -24.922,-31.474 -25.689,-32.4C-29.125,-36.49 -27.557,-44.08 -26.771,-47.001C-26.5,-44.974 -23.877,-41.863 -23.877,-41.863C-23.898,-42.128 -28.657,-68.525 -19.918,-88.066C-20.871,-78.187 -17.119,-73.743 -17.119,-73.743C-17.119,-73.743 -19.984,-84.126 -14.009,-93.618C-8.911,-101.716 -8.668,-107.093 -9.633,-110.251C-10.604,-113.4 -12.588,-115.492 -13.93,-116.613C-11.91,-115.775 -8.426,-113.691 -6.586,-108.912C-5.324,-105.652 -5.811,-100.91 -5.811,-100.91C-5.811,-100.91 -1.331,-109.503 -6.552,-117.087C-7.875,-119.008 -3.269,-121.727 0,-122.147" style="fill:rgb(107,105,240);fill-rule:nonzero;"/>
            </g>
        </g>
        <g transform="matrix(1.09083,0,0,1.09083,-247.467,-75.4964)">
            <g transform="matrix(1.15156,0,0,1.15156,-308.724,-258.21)">
                <path d="M1793.36,992.386C1778.42,992.386 1770.83,1000.36 1770.83,1011.75C1770.83,1017.32 1772.1,1022.63 1777.92,1030.35L1789.43,1045.79C1793.86,1051.61 1795.13,1054.9 1795.13,1059.2C1795.13,1065.15 1792.85,1068.95 1785.89,1068.95C1781.33,1068.95 1776.78,1067.18 1774.12,1064.77C1771.97,1068.06 1770.96,1072.24 1770.96,1075.02C1770.96,1079.45 1776.14,1083.5 1787.54,1083.5C1805.88,1083.5 1810.57,1071.48 1810.57,1058.83C1810.57,1051.61 1809.05,1046.04 1802.97,1038.2L1790.83,1022.63C1787.54,1018.08 1786.27,1015.29 1786.27,1011.37C1786.27,1006.94 1790.07,1004.92 1796.27,1004.92C1801.08,1004.92 1805.88,1006.43 1807.28,1007.45C1809.68,1004.79 1810.57,1001.88 1810.57,999.473C1810.57,995.044 1806.14,992.386 1793.36,992.386Z" style="fill:rgb(107,105,240);fill-rule:nonzero;"/>
            </g>
            <g transform="matrix(1.15156,0,0,1.15156,-308.724,-258.21)">
                <path d="M1808.67,1021.62C1808.67,1021.62 1816.26,1061.61 1819.68,1076.67C1820.44,1080.09 1822.08,1082.87 1825.5,1082.87C1830.56,1082.87 1837.78,1082.24 1837.78,1082.24L1840.05,1068.19C1840.81,1063.26 1841.44,1056.29 1841.83,1049.71C1842.08,1056.29 1842.71,1063.26 1843.47,1068.19L1844.74,1076.54C1845.5,1081.22 1849.04,1082.87 1851.95,1082.87C1858.53,1082.87 1861.19,1082.24 1861.19,1082.24C1862.07,1082.24 1873.84,1018.96 1873.84,1018.96C1861.06,1018.96 1860.55,1018.96 1860.17,1021.75L1858.28,1036.68C1857.14,1045.29 1856.38,1057.94 1856,1066.8L1854.99,1066.8C1854.99,1066.8 1854.35,1053.89 1853.47,1048.45L1849.16,1020.23L1839.8,1020.23C1836,1020.23 1835.62,1020.61 1835.24,1023.01L1831.83,1048.45C1830.94,1054.65 1830.69,1063.13 1830.43,1066.8L1829.42,1066.8C1829.42,1066.8 1828.41,1048.95 1826.77,1036.68L1824.36,1018.96C1809.55,1018.96 1808.29,1018.96 1808.67,1021.62Z" style="fill:rgb(107,105,240);fill-rule:nonzero;"/>
            </g>
            <g transform="matrix(1.15156,0,0,1.15156,-310.724,-258.21)">
                <path d="M1893.08,1018.96C1881.43,1018.96 1878.65,1018.96 1878.65,1025.16L1878.65,1082.24C1892.95,1082.24 1893.08,1082.24 1893.08,1079.71L1893.08,1018.96ZM1879.28,1000.49C1879.28,1008.46 1881.94,1010.74 1886.12,1010.74C1891.05,1010.74 1893.71,1006.69 1893.71,999.853C1893.71,993.019 1892.19,990.615 1887,990.615C1881.69,990.615 1879.28,994.664 1879.28,1000.49Z" style="fill:rgb(107,105,240);fill-rule:nonzero;"/>
            </g>
            <g transform="matrix(1.15156,0,0,1.15156,-311.724,-258.21)">
                <path d="M1905.48,1030.73L1905.48,1082.24L1917.12,1082.24C1919.65,1082.24 1919.65,1079.71 1919.65,1079.71L1919.65,1030.73L1922.63,1030.73C1925.04,1030.73 1925.29,1029.97 1925.29,1018.96L1919.65,1018.96L1919.65,1006.43C1919.65,1002.26 1920.79,1000.49 1924.34,1000.49C1925.73,1000.49 1927.63,1000.87 1929.4,1001.62C1930.28,999.22 1930.79,996.056 1930.79,994.411C1930.79,990.741 1928.89,988.59 1920.67,988.59C1912.06,988.59 1905.48,992.133 1905.48,1005.17L1905.48,1018.96L1901.3,1018.96C1897.89,1018.96 1897.89,1019.72 1897.89,1030.73L1905.48,1030.73Z" style="fill:rgb(107,105,240);fill-rule:nonzero;"/>
            </g>
            <g transform="matrix(1.15156,0,0,1.15156,-316.724,-258.21)">
                <path d="M1963.04,1023.3C1962.96,1030.17 1962.53,1030.98 1960.28,1030.98L1952.68,1030.98L1952.68,1065.41C1952.68,1068.32 1952.68,1071.48 1955.72,1071.48C1958,1071.48 1959.9,1070.97 1962.3,1069.84C1962.68,1071.61 1963.19,1073.88 1963.19,1076.67C1963.19,1082.74 1956.48,1083.5 1951.67,1083.5C1940.53,1083.5 1938.51,1076.92 1938.51,1065.66L1938.51,1030.98L1930.92,1030.98C1930.92,1020.23 1931.04,1018.96 1933.83,1018.96L1938.51,1018.96L1938.51,1000.61C1938.51,996.183 1941.29,996.183 1952.68,996.183L1952.68,1018.96L1963.06,1018.96C1963.06,1019.25 1968.59,1018.06 1976.82,1018.96L1980.49,1040.86C1982.26,1051.11 1983.4,1064.27 1983.65,1066.16C1983.78,1064.9 1984.79,1051.49 1986.31,1040.86L1988.71,1022.88C1989.22,1018.96 1989.47,1018.96 2003.77,1018.96L1989.6,1085.15C1986.05,1101.73 1981.88,1106.66 1971.63,1106.66C1962.26,1106.66 1959.98,1103.88 1959.98,1100.33C1959.98,1097.8 1960.62,1094.51 1961.76,1092.61C1963.27,1093.75 1966.69,1094.77 1970.36,1094.77C1973.4,1094.77 1975.8,1092.49 1976.69,1084.26L1963.04,1023.3Z" style="fill:rgb(107,105,240);"/>
            </g>
            <g transform="matrix(1.15156,0,0,1.15156,-324.724,-258.21)">
                <path d="M2026.72,1069.58L2026.72,1040.73L2039.62,1040.73C2042.03,1040.73 2042.03,1038.45 2042.03,1027.82L2026.72,1027.82L2026.72,1006.31L2042.91,1006.31C2045.44,1006.31 2045.44,1005.04 2045.44,993.652L2015.07,993.652C2012.67,993.652 2012.54,996.183 2012.54,996.183L2012.54,1082.24L2042.03,1082.24C2044.56,1082.24 2044.56,1081.48 2044.56,1069.58L2026.72,1069.58Z" style="fill:rgb(166,165,246);fill-rule:nonzero;"/>
            </g>
            <g transform="matrix(1.15156,0,0,1.15156,-327.724,-258.21)">
                <path d="M2072.4,1069.71C2071.26,1070.6 2069.87,1070.97 2068.22,1070.97C2064.93,1070.97 2063.54,1066.8 2063.54,1051.74C2063.54,1030.86 2067.21,1029.85 2069.74,1029.85C2070.63,1029.85 2071.64,1029.97 2072.4,1030.48L2072.4,1069.71ZM2072.4,1019.97C2070.88,1018.71 2068.35,1017.7 2064.93,1017.7C2055.06,1017.7 2047.6,1027.57 2047.6,1053.51C2047.6,1080.34 2057.34,1083.5 2068.1,1083.5C2076.32,1083.5 2082.27,1081.61 2086.57,1079.71L2086.57,989.223C2074.8,989.223 2072.4,989.223 2072.4,995.424L2072.4,1019.97Z" style="fill:rgb(166,165,246);fill-rule:nonzero;"/>
            </g>
            <g transform="matrix(1.15156,0,0,1.15156,-330.724,-258.21)">
                <path d="M2109.61,1018.96C2097.96,1018.96 2095.18,1018.96 2095.18,1025.16L2095.18,1082.24C2109.48,1082.24 2109.61,1082.24 2109.61,1079.71L2109.61,1018.96ZM2095.81,1000.49C2095.81,1008.46 2098.47,1010.74 2102.64,1010.74C2107.58,1010.74 2110.24,1006.69 2110.24,999.853C2110.24,993.019 2108.72,990.615 2103.53,990.615C2098.22,990.615 2095.81,994.664 2095.81,1000.49Z" style="fill:rgb(166,165,246);fill-rule:nonzero;"/>
            </g>
            <g transform="matrix(1.15156,0,0,1.15156,-332.724,-258.21)">
                <path d="M2122.51,1065.66C2122.51,1076.92 2124.54,1083.5 2135.68,1083.5C2140.48,1083.5 2147.19,1082.74 2147.19,1076.67C2147.19,1073.88 2146.68,1071.61 2146.3,1069.84C2143.9,1070.97 2142,1071.48 2139.72,1071.48C2136.69,1071.48 2136.69,1068.32 2136.69,1065.41L2136.69,1030.98L2144.28,1030.98C2146.94,1030.98 2147.07,1029.85 2147.07,1018.96L2136.69,1018.96L2136.69,996.183C2125.3,996.183 2122.51,996.183 2122.51,1000.61L2122.51,1018.96L2117.83,1018.96C2115.05,1018.96 2114.92,1020.23 2114.92,1030.98L2122.51,1030.98L2122.51,1065.66Z" style="fill:rgb(166,165,246);fill-rule:nonzero;"/>
            </g>
        </g>
    </g>
    <defs>
        <linearGradient id="_Linear1" x1="0" y1="0" x2="1" y2="0" gradientUnits="userSpaceOnUse" gradientTransform="matrix(-219.19,269.659,-269.659,-219.19,2769.91,3975.92)"><stop offset="0" style="stop-color:rgb(205,102,224);stop-opacity:1"/><stop offset="0.58" style="stop-color:rgb(159,125,237);stop-opacity:1"/><stop offset="1" style="stop-color:rgb(137,135,243);stop-opacity:1"/></linearGradient>
    </defs>
</svg>
