<?xml version="1.0" encoding="UTF-8" standalone="no"?>
<!DOCTYPE svg PUBLIC "-//W3C//DTD SVG 1.1//EN" "http://www.w3.org/Graphics/SVG/1.1/DTD/svg11.dtd">
<svg width="100%" height="100%" viewBox="0 0 186 219" version="1.1" xmlns="http://www.w3.org/2000/svg" xmlns:xlink="http://www.w3.org/1999/xlink" xml:space="preserve" xmlns:serif="http://www.serif.com/" style="fill-rule:evenodd;clip-rule:evenodd;stroke-linejoin:round;stroke-miterlimit:2;">
    <g transform="matrix(1,0,0,1,-1443.13,-824.02)">
        <g>
            <g transform="matrix(0.296689,0,0,0.296689,766.895,-321.522)">
                <path d="M2766.19,3965.28C2787.9,3979.76 2803.55,4003.11 2807.42,4030.99L2850.34,4340.19C2857.54,4391.94 2821.41,4439.72 2769.65,4446.91L2580.74,4465.07C2578.74,4463.78 2576.27,4462.49 2573.2,4461.25C2570.79,4460.28 2568.8,4459.28 2567.22,4458.18C2566.21,4457.48 2565.17,4457.21 2565.13,4456.39C2565.07,4455.12 2565.9,4453.93 2566.69,4452.62C2567.82,4450.74 2569.28,4448.89 2570.91,4447.07C2577.71,4439.43 2587.12,4432.52 2593.02,4427.88C2617.46,4408.69 2622.23,4396.02 2624.68,4385.22C2625.78,4380.34 2624.11,4375.25 2620.33,4371.98C2617.73,4369.73 2614.43,4368.59 2611.1,4368.69C2613.62,4367.24 2615.9,4365.92 2617.83,4364.78C2624.71,4360.71 2628.51,4357.02 2629.08,4356.18C2651.95,4322.8 2677.03,4264.07 2700.51,4186.17C2701.56,4182.69 2701.16,4178.98 2699.46,4175.83C2703.93,4173.73 2706.93,4169.32 2707.21,4164.32C2710.05,4112.25 2744.57,4069.47 2761.4,4051.33C2765.97,4046.41 2766.24,4038.88 2762.03,4033.64C2757.82,4028.4 2750.41,4027.04 2744.62,4030.45C2743.51,4031.1 2742.41,4031.73 2741.32,4032.33C2747.25,4024.84 2751.96,4016.15 2755.64,4006.88C2761.04,3993.27 2764.19,3978.45 2766.19,3965.28ZM2539.03,3981.93C2534.83,3994.39 2527.96,4008.84 2517.49,4025.49C2511.05,4035.72 2506.17,4046.11 2502.52,4056.34C2500.93,4054.85 2498.96,4053.73 2496.73,4053.14C2490.31,4051.44 2483.61,4054.64 2480.9,4060.7C2444.39,4142.34 2445.73,4243.32 2450.48,4300.73C2444.99,4301.29 2440.28,4305.19 2438.81,4310.68C2435.72,4322.16 2430.86,4344.66 2432.27,4366.6C2433.33,4383.01 2437.93,4399 2448.01,4411.03C2449.66,4413.03 2450.64,4415.03 2450.17,4417.25C2449.1,4422.18 2444.62,4426.24 2440.22,4429.86C2431.46,4437.07 2421.35,4441.75 2420.66,4442.04L2421.76,4441.64C2420.63,4442.07 2416.29,4443.86 2412.03,4447.36C2410.29,4448.78 2408.61,4450.47 2407.11,4452.39C2390.36,4437.9 2378.59,4417.51 2375.31,4393.85L2332.27,4113.31C2325.09,4061.56 2361.21,4013.79 2412.96,4006.6L2539.03,3981.93Z" style="fill:rgb(166,165,246);fill-rule:nonzero;"/>
            </g>
            <g transform="matrix(0.296689,0,0,0.296689,766.895,-321.522)">
                <path d="M2539.58,3928.75L2404.22,3955.24C2324.83,3967.11 2269.62,4040.75 2280.68,4120.47L2280.73,4120.84C2280.79,4121.21 2322.14,4390.74 2323.78,4401.42C2333.38,4469.29 2388.03,4519.75 2453.29,4526.73C2447.71,4518.9 2440.82,4511.93 2431.86,4506.38C2420.17,4499.15 2412.09,4491.92 2407.49,4485.4C2403.56,4479.82 2401.74,4474.35 2401.5,4469.3C2379.02,4452.14 2363.04,4426.47 2358.82,4396.26C2357.85,4389.94 2315.79,4115.84 2315.78,4115.72L2315.76,4115.6C2307.34,4054.89 2349.59,3998.83 2410.19,3990.16L2543.55,3964.06C2545.4,3952.58 2544.61,3943.39 2542.42,3936.24C2541.61,3933.59 2540.65,3931.1 2539.58,3928.75ZM2769.86,3908.45C2770.84,3920.11 2769.97,3931.85 2769.05,3941.26C2768.87,3943.09 2768.68,3945.05 2768.46,3947.11C2797.59,3963.61 2818.98,3992.99 2823.93,4028.7L2866.85,4337.89L2866.85,4337.89C2875.31,4398.76 2832.82,4454.96 2771.59,4463.47L2590.42,4480.88C2590.45,4481.3 2590.47,4481.69 2590.49,4482.02C2591.25,4486.05 2590.14,4490.26 2587.38,4493.42C2584.08,4497.19 2578.97,4498.84 2574.09,4497.69L2572.92,4497.43C2575.24,4501.92 2577.54,4508.03 2577.63,4510.31C2577.75,4513.27 2577.01,4515.59 2576.14,4517.34C2576.05,4517.52 2575.95,4517.69 2575.86,4517.86L2775.73,4498.65C2857.07,4487.34 2913.08,4413.26 2901.93,4333.02L2901.93,4333.02L2859.01,4023.83C2851.61,3970.42 2816.3,3927.74 2769.86,3908.45Z" style="fill:url(#_Linear1);"/>
            </g>
            <g transform="matrix(1.79153,0,0,1.79153,1542.62,1042.85)">
                <path d="M0,-122.147C-0.35,-121.582 -0.719,-120.742 -0.432,-120.084C-0.18,-119.486 0.525,-119.116 1.686,-119.186C5.912,-119.44 11.801,-121.187 14.988,-121.354C24.509,-121.854 23.971,-113.569 23.521,-108.978C23.115,-104.785 22.268,-96.074 16.971,-92.888C13.834,-91.001 7.598,-88.58 7.598,-88.58C7.598,-88.58 9.172,-88.296 10.281,-88.296C12.686,-88.296 17.328,-88.815 22.844,-92.058C19.852,-88.835 13.779,-81.199 13.273,-71.943C12.48,-71.64 7.572,-70.662 3.588,-69.869C-5.85,-67.993 -5.875,-67.927 -5.957,-67.652C-5.826,-67.277 -0.404,-67.634 3.463,-68.041C7.174,-68.445 11.012,-68.85 12.256,-68.85C8.455,-56.239 4.426,-46.718 0.711,-41.297C0.408,-40.845 -11.354,-34.568 -11.326,-34.021C-11.326,-34.021 -8.326,-32.655 -0.342,-35.735C-0.679,-34.25 -1.423,-32.575 -4.783,-29.937C-7.425,-27.863 -13.932,-23.154 -7.52,-20.568C-5.556,-19.775 -6.182,-19.22 -6.02,-18.796C-6.424,-18.891 -7.092,-19.023 -7.775,-19.023C-8.352,-19.023 -8.838,-18.929 -9.236,-18.759C-10.658,-17.859 -9.309,-16.712 -8.795,-15.771C-8.523,-15.281 -8.117,-14.526 -8.197,-14.367C-9.785,-14.367 -14.275,-11.476 -14.744,-11.476C-15.846,-11.476 -17.689,-12.394 -17.715,-18.552C-17.793,-41.543 -13.381,-64.996 -4.576,-88.259L-5.035,-88.466C-11.525,-74.205 -16.148,-60.16 -18.77,-46.699L-20.453,-36.066C-22.598,-18.014 -20.572,-5.628 -19.076,0C-19.697,-1.433 -20.23,-2.931 -20.742,-4.412C-22.445,-9.209 -24.203,-14.168 -28.908,-17.081C-31.592,-18.74 -32.963,-20.316 -32.873,-21.634C-32.783,-23.019 -31.098,-23.755 -31.068,-23.764C-30.846,-23.858 -25.543,-26.291 -24.861,-29.467C-24.643,-30.494 -24.922,-31.474 -25.689,-32.4C-29.125,-36.49 -27.557,-44.08 -26.771,-47.001C-26.5,-44.974 -23.877,-41.863 -23.877,-41.863C-23.898,-42.128 -28.657,-68.525 -19.918,-88.066C-20.871,-78.187 -17.119,-73.743 -17.119,-73.743C-17.119,-73.743 -19.984,-84.126 -14.009,-93.618C-8.911,-101.716 -8.668,-107.093 -9.633,-110.251C-10.604,-113.4 -12.588,-115.492 -13.93,-116.613C-11.91,-115.775 -8.426,-113.691 -6.586,-108.912C-5.324,-105.652 -5.811,-100.91 -5.811,-100.91C-5.811,-100.91 -1.331,-109.503 -6.552,-117.087C-7.875,-119.008 -3.269,-121.727 0,-122.147" style="fill:rgb(107,105,240);fill-rule:nonzero;"/>
            </g>
        </g>
    </g>
    <defs>
        <linearGradient id="_Linear1" x1="0" y1="0" x2="1" y2="0" gradientUnits="userSpaceOnUse" gradientTransform="matrix(-219.19,269.659,-269.659,-219.19,2769.91,3975.92)"><stop offset="0" style="stop-color:rgb(205,102,224);stop-opacity:1"/><stop offset="0.58" style="stop-color:rgb(159,125,237);stop-opacity:1"/><stop offset="1" style="stop-color:rgb(137,135,243);stop-opacity:1"/></linearGradient>
    </defs>
</svg>
