<?xml version="1.0" encoding="UTF-8" standalone="no"?><!DOCTYPE svg PUBLIC "-//W3C//DTD SVG 1.1//EN" "http://www.w3.org/Graphics/SVG/1.1/DTD/svg11.dtd"><svg width="100%" height="100%" viewBox="0 0 256 303" version="1.1" xmlns="http://www.w3.org/2000/svg" xmlns:xlink="http://www.w3.org/1999/xlink" xml:space="preserve" xmlns:serif="http://www.serif.com/" style="fill-rule:evenodd;clip-rule:evenodd;stroke-linejoin:round;stroke-miterlimit:2;"><g><path d="M199.692,42.727c8.904,5.941 15.322,15.516 16.907,26.95l17.604,126.805c2.95,21.224 -11.867,40.818 -33.094,43.768l-77.474,7.448c-0.818,-0.528 -1.832,-1.057 -3.093,-1.566c-0.987,-0.398 -1.802,-0.811 -2.452,-1.261c-0.414,-0.288 -0.838,-0.396 -0.854,-0.732c-0.026,-0.522 0.314,-1.01 0.638,-1.547c0.463,-0.77 1.063,-1.529 1.729,-2.276c2.791,-3.132 6.65,-5.969 9.069,-7.868c10.024,-7.871 11.979,-13.069 12.984,-17.498c0.454,-2.001 -0.232,-4.088 -1.784,-5.43c-1.066,-0.921 -2.421,-1.388 -3.785,-1.35c1.034,-0.593 1.967,-1.134 2.761,-1.603c2.819,-1.669 4.38,-3.18 4.612,-3.527c9.38,-13.687 19.665,-37.774 29.295,-69.722c0.429,-1.425 0.266,-2.95 -0.432,-4.239c1.836,-0.864 3.066,-2.672 3.178,-4.72c1.168,-21.355 15.324,-38.902 22.227,-46.338c1.875,-2.02 1.985,-5.109 0.258,-7.257c-1.726,-2.149 -4.767,-2.705 -7.143,-1.309c-0.453,0.266 -0.903,0.525 -1.351,0.774c2.433,-3.073 4.364,-6.638 5.871,-10.438c2.214,-5.584 3.508,-11.662 4.329,-17.064Zm-93.161,6.829c-1.722,5.111 -4.539,11.039 -8.835,17.864c-2.642,4.198 -4.643,8.459 -6.139,12.655c-0.653,-0.612 -1.46,-1.073 -2.376,-1.314c-2.63,-0.696 -5.378,0.617 -6.488,3.102c-14.974,33.481 -14.424,74.892 -12.477,98.436c-2.254,0.232 -4.183,1.831 -4.788,4.08c-1.267,4.709 -3.257,13.937 -2.679,22.937c0.432,6.728 2.32,13.287 6.455,18.219c0.676,0.819 1.077,1.64 0.885,2.55c-0.438,2.024 -2.277,3.689 -4.079,5.172c-3.594,2.958 -7.743,4.876 -8.026,4.995l0.455,-0.164c-0.464,0.176 -2.245,0.911 -3.993,2.346c-0.712,0.584 -1.404,1.276 -2.018,2.064c-6.87,-5.942 -11.695,-14.306 -13.042,-24.01l-17.651,-115.048c-2.944,-21.224 11.87,-40.818 33.094,-43.765l51.702,-10.119Z" style="fill:#ccc;fill-rule:nonzero;"/><path d="M106.758,27.747l-55.514,10.864c-32.558,4.871 -55.201,35.069 -50.666,67.763l0.021,0.153c0.023,0.152 16.982,110.686 17.654,115.066c3.939,27.837 26.353,48.528 53.115,51.393c-2.288,-3.214 -5.116,-6.072 -8.789,-8.346c-4.796,-2.964 -8.107,-5.929 -9.992,-8.603c-1.615,-2.291 -2.361,-4.533 -2.46,-6.605c-9.217,-7.037 -15.77,-17.565 -17.504,-29.953c-0.397,-2.591 -17.644,-115.003 -17.651,-115.052l-0.007,-0.048c-3.454,-24.9 13.873,-47.891 38.729,-51.447l54.692,-10.704c0.757,-4.709 0.431,-8.477 -0.463,-11.408c-0.335,-1.085 -0.729,-2.109 -1.165,-3.073Zm94.437,-8.325c0.404,4.781 0.045,9.596 -0.333,13.458c-0.073,0.748 -0.151,1.551 -0.239,2.4c11.945,6.763 20.717,18.814 22.746,33.457l17.604,126.805l-0,-0.001c3.47,24.963 -13.956,48.009 -39.066,51.499l-74.303,7.143c0.014,0.172 0.024,0.329 0.031,0.466c0.312,1.654 -0.144,3.381 -1.275,4.675c-1.353,1.548 -3.451,2.222 -5.452,1.751l-0.477,-0.105c0.949,1.841 1.892,4.348 1.93,5.28c0.05,1.213 -0.252,2.168 -0.612,2.883c-0.037,0.073 -0.075,0.145 -0.115,0.216l81.969,-7.88c33.36,-4.637 56.331,-35.02 51.756,-67.928l0.001,0.004l-17.605,-126.806c-3.034,-21.901 -17.513,-39.406 -36.56,-47.317Z" style="fill:#8d70a0;"/><path d="M137.532,0c-0.867,1.399 -1.78,3.479 -1.07,5.109c0.624,1.481 2.37,2.397 5.245,2.224c10.466,-0.63 25.05,-4.955 32.941,-5.369c23.579,-1.239 22.246,19.279 21.132,30.648c-1.006,10.383 -3.103,31.955 -16.221,39.845c-7.768,4.673 -23.211,10.668 -23.211,10.668c-0,0 3.898,0.704 6.644,0.704c5.956,-0 17.451,-1.286 31.111,-9.317c-7.409,7.982 -22.449,26.892 -23.702,49.813c-1.963,0.751 -14.118,3.173 -23.984,5.136c-23.372,4.646 -23.434,4.81 -23.637,5.491c0.325,0.928 13.752,0.044 23.328,-0.964c9.19,-1 18.694,-2.003 21.775,-2.003c-9.413,31.23 -19.39,54.808 -28.59,68.232c-0.75,1.119 -29.878,16.664 -29.809,18.018c0,0 7.43,3.383 27.201,-4.244c-0.834,3.676 -2.677,7.825 -10.997,14.358c-6.543,5.137 -22.657,16.796 -6.778,23.202c4.864,1.963 3.313,3.338 3.714,4.388c-1,-0.236 -2.655,-0.563 -4.346,-0.563c-1.429,0 -2.632,0.233 -3.618,0.654c-3.522,2.23 -0.181,5.069 1.092,7.4c0.674,1.213 1.679,3.083 1.481,3.477c-3.932,-0 -15.052,7.159 -16.213,7.159c-2.729,-0 -7.293,-2.273 -7.357,-17.523c-0.193,-56.935 10.732,-115.014 32.537,-172.623l-1.137,-0.512c-16.071,35.316 -27.52,70.097 -34.013,103.432l-4.168,26.331c-5.312,44.704 -0.294,75.377 3.41,89.314c-1.538,-3.549 -2.857,-7.258 -4.125,-10.926c-4.218,-11.879 -8.571,-24.16 -20.223,-31.373c-6.646,-4.109 -10.041,-8.012 -9.819,-11.275c0.223,-3.43 4.396,-5.253 4.47,-5.275c0.55,-0.233 13.682,-6.258 15.371,-14.123c0.54,-2.543 -0.151,-4.97 -2.05,-7.263c-8.509,-10.129 -4.626,-28.925 -2.68,-36.158c0.671,5.019 7.167,12.723 7.167,12.723c-0.052,-0.656 -11.836,-66.025 9.805,-114.416c-2.362,24.464 6.931,35.469 6.931,35.469c-0,-0 -7.095,-25.712 7.702,-49.22c12.623,-20.053 13.226,-33.368 10.836,-41.189c-2.405,-7.798 -7.318,-12.979 -10.641,-15.755c5.002,2.076 13.63,7.236 18.187,19.071c3.125,8.073 1.919,19.816 1.919,19.816c-0,0 11.095,-21.278 -1.836,-40.061c-3.275,-4.757 8.13,-11.49 16.226,-12.53" style="fill:#8d70a0;fill-rule:nonzero;"/></g></svg>